<svg id="final_svg" xmlns="http://www.w3.org/2000/svg" xmlns:xlink="http://www.w3.org/1999/xlink" viewBox="1531.1064453125 690.3612060546875 265.7872314453125 334.947265625">
      <g id="color_index_0" fill="#ff6391" transform="translate(1531.1064, 690.3612499999999) scale(1.064)" opacity="1">
              <path d="M249.8,51.5l-34.2,24.3l-8.2-11.5l12.9-9.2L204.5,49c-8.9-29.2-45.1-44-71.7-29.1c-11.1,5.9-19.8,15.9-24.1,27.7		L25.3,264.9l126.6-56.2c18.3-8.1,26.5-29.6,18.4-47.9c-7.6-17.9-30.2-26.8-47.9-18.4l-5.7-12.9c24.4-11.5,56,0.5,66.4,25.5		c11.3,25.4-0.2,55.2-25.5,66.4l-17.2,7.6v65.8c7,1.3,13.7,4.7,19,10.1l-9.9,9.9c-8.9-8.9-23.4-8.9-32.3,0l-9.9-9.9		c5.4-5.4,12.1-8.8,19-10.1v-59.5L0,291.6L96.1,41.3c5.6-14.5,16.2-26.5,30.1-33.8C158-10.2,201,4.8,215.3,38.1L249.8,51.5z"></path>
        <circle cx="174.3" cy="47.9" r="11.1"></circle>
          </g>
    <g fill="#1e2b7a" id="text_group" transform="translate(1563.907782, 1049.52125)" opacity="1.0">
              <path d=""></path>
          </g>
  </svg>